<?xml version="1.0" encoding="iso-8859-1"?>
<!-- Generator: Adobe Illustrator 19.0.0, SVG Export Plug-In . SVG Version: 6.00 Build 0)  -->
<svg version="1.1" id="Layer_1" xmlns="http://www.w3.org/2000/svg" xmlns:xlink="http://www.w3.org/1999/xlink" x="0px" y="0px"
	 viewBox="0 0 218.207 218.207" style="enable-background:new 0 0 218.207 218.207;" xml:space="preserve">
<g>
	<g>
		<g>
			<path d="M214.31,27.276H3.897C1.745,27.276,0,29.019,0,31.172v155.862c0,2.154,1.745,3.897,3.897,3.897H214.31
				c2.152,0,3.897-1.743,3.897-3.897V31.172C218.207,29.019,216.462,27.276,214.31,27.276z M210.414,183.138H7.793V35.069h202.621
				V183.138z"/>
			<path d="M109.103,163.655c30.08,0,54.552-24.472,54.552-54.552c0-2.154-1.745-3.897-3.897-3.897h-50.655v-46.61
				c0-1.084-0.453-2.119-1.248-2.858c-0.795-0.738-1.859-1.092-2.943-1.028c-28.24,2.15-50.36,26.039-50.36,54.392
				C54.552,139.184,79.023,163.655,109.103,163.655z M101.31,62.996v46.108c0,2.154,1.745,3.897,3.897,3.897H155.7
				c-1.986,23.965-22.127,42.862-46.597,42.862c-25.782,0-46.759-20.974-46.759-46.759C62.345,86.223,79.149,66.732,101.31,62.996z"
				/>
			<rect x="136.379" y="54.552" width="46.759" height="7.793"/>
			<rect x="15.586" y="151.966" width="38.966" height="7.793"/>
			<rect x="159.759" y="144.172" width="23.379" height="7.793"/>
			<rect x="159.759" y="155.862" width="23.379" height="7.793"/>
			<rect x="15.586" y="167.552" width="38.966" height="7.793"/>
			<rect x="136.379" y="70.138" width="19.483" height="7.793"/>
		</g>
	</g>
</g>
<g>
</g>
<g>
</g>
<g>
</g>
<g>
</g>
<g>
</g>
<g>
</g>
<g>
</g>
<g>
</g>
<g>
</g>
<g>
</g>
<g>
</g>
<g>
</g>
<g>
</g>
<g>
</g>
<g>
</g>
</svg>
