<?xml version="1.0" encoding="iso-8859-1"?>
<!-- Generator: Adobe Illustrator 18.0.0, SVG Export Plug-In . SVG Version: 6.00 Build 0)  -->
<!DOCTYPE svg PUBLIC "-//W3C//DTD SVG 1.1//EN" "http://www.w3.org/Graphics/SVG/1.1/DTD/svg11.dtd">
<svg version="1.1" id="Capa_1" xmlns="http://www.w3.org/2000/svg" xmlns:xlink="http://www.w3.org/1999/xlink" x="0px" y="0px"
	 viewBox="0 0 472.688 472.688" style="enable-background:new 0 0 472.688 472.688;" xml:space="preserve">
<path d="M440.363,356.539H28.4c-8.572,0-15.958-6.574-16.38-15.135c-0.451-9.151,6.864-16.74,15.918-16.74h109.535
	c0,0,5.456,0.034,6.038-0.145l94.231-29.084c0.934-0.288,1.782-0.799,2.473-1.49l153.563-153.563
	c10.865-10.864,16.336-25.684,15.071-41.213c-0.87-10.679-5.085-20.897-12-29.081c-9.977-11.808-24.157-18.44-39.371-18.587
	c-14.251-0.137-27.891,5.806-37.968,15.884L166.583,220.312c-0.691,0.691-1.203,1.54-1.491,2.473l-27.741,89.88H28.532
	c-15.202,0-28.068,11.896-28.519,27.092c-0.469,15.789,12.239,28.783,27.925,28.783h411.927c11.007,0,20.393,8.542,20.809,19.541
	c0.437,11.563-8.843,21.109-20.31,21.109H137.044c-3.314,0-6,2.686-6,6s2.686,6,6,6h302.675c18.086,0,33.272-14.8,32.964-32.883
	C472.385,370.738,458.001,356.539,440.363,356.539z M356.962,63.499c10.702,0,20.764,4.167,28.331,11.735
	c7.567,7.567,11.734,17.629,11.734,28.331c0,9.936-3.597,19.316-10.167,26.665c1.347-14.865-3.651-30.203-15.006-41.558
	c-11.355-11.355-26.693-16.354-41.559-15.006C337.645,67.096,347.026,63.499,356.962,63.499z M363.37,97.158
	c15.615,15.616,15.62,41.021,0.017,56.645L240.835,276.355c-5.081-28.646-28.113-51.547-56.804-56.521L306.708,97.156
	C322.331,81.536,347.748,81.536,363.37,97.158z M175.152,230.88c29.705,1.39,53.218,24.758,54.676,54.44l-37.763,11.655
	c-3.236-13.788-14.321-25.17-28.552-28.384L175.152,230.88z M159.959,280.106c10.323,1.918,18.635,10.125,20.62,20.414
	l-29.755,9.184L159.959,280.106z"/>
<g>
</g>
<g>
</g>
<g>
</g>
<g>
</g>
<g>
</g>
<g>
</g>
<g>
</g>
<g>
</g>
<g>
</g>
<g>
</g>
<g>
</g>
<g>
</g>
<g>
</g>
<g>
</g>
<g>
</g>
</svg>
